<?xml version="1.0" encoding="us-ascii" standalone="no"?><svg xmlns="http://www.w3.org/2000/svg" xmlns:xlink="http://www.w3.org/1999/xlink" contentStyleType="text/css" height="490px" preserveAspectRatio="none" style="width:1108px;height:490px;background:#FFFFFF;" version="1.1" viewBox="0 0 1108 490" width="1108px" zoomAndPan="magnify"><defs/><g><rect fill="#FFFFFF" height="279" style="stroke:#181818;stroke-width:1.0;" width="10" x="177.5" y="112.4297"/><rect fill="#FFFFFF" height="249.8672" style="stroke:#181818;stroke-width:1.0;" width="10" x="317.5" y="141.5625"/><rect fill="#FFFFFF" height="29.1328" style="stroke:#181818;stroke-width:1.0;" width="10" x="595.5" y="194.8281"/><rect fill="#FFFFFF" height="87.3984" style="stroke:#181818;stroke-width:1.0;" width="10" x="677.5" y="267.8984"/><rect fill="#FFFFFF" height="29.1328" style="stroke:#181818;stroke-width:1.0;" width="10" x="989.5" y="297.0313"/><rect fill="none" height="206.7344" style="stroke:#000000;stroke-width:1.5;" width="839" x="262.5" y="156.5625"/><line style="stroke:#181818;stroke-width:0.5;stroke-dasharray:5.0,5.0;" x1="33" x2="33" y1="81.2969" y2="409.4297"/><line style="stroke:#181818;stroke-width:0.5;stroke-dasharray:5.0,5.0;" x1="182" x2="182" y1="81.2969" y2="409.4297"/><line style="stroke:#181818;stroke-width:0.5;stroke-dasharray:5.0,5.0;" x1="322.5" x2="322.5" y1="81.2969" y2="409.4297"/><line style="stroke:#181818;stroke-width:0.5;stroke-dasharray:5.0,5.0;" x1="600.5" x2="600.5" y1="81.2969" y2="409.4297"/><line style="stroke:#181818;stroke-width:0.5;stroke-dasharray:5.0,5.0;" x1="682.5" x2="682.5" y1="81.2969" y2="409.4297"/><line style="stroke:#181818;stroke-width:0.5;stroke-dasharray:5.0,5.0;" x1="994.5" x2="994.5" y1="81.2969" y2="409.4297"/><text fill="#000000" font-family="sans-serif" font-size="14" lengthAdjust="spacing" textLength="51" x="5" y="77.9951">Usuario</text><ellipse cx="33.5" cy="13.5" fill="#E2E2F0" rx="8" ry="8" style="stroke:#181818;stroke-width:0.5;"/><path d="M33.5,21.5 L33.5,48.5 M20.5,29.5 L46.5,29.5 M33.5,48.5 L20.5,63.5 M33.5,48.5 L46.5,63.5 " fill="none" style="stroke:#181818;stroke-width:0.5;"/><text fill="#000000" font-family="sans-serif" font-size="14" lengthAdjust="spacing" textLength="51" x="5" y="421.4248">Usuario</text><ellipse cx="33.5" cy="433.2266" fill="#E2E2F0" rx="8" ry="8" style="stroke:#181818;stroke-width:0.5;"/><path d="M33.5,441.2266 L33.5,468.2266 M20.5,449.2266 L46.5,449.2266 M33.5,468.2266 L20.5,483.2266 M33.5,468.2266 L46.5,483.2266 " fill="none" style="stroke:#181818;stroke-width:0.5;"/><rect fill="#E2E2F0" height="30.2969" rx="2.5" ry="2.5" style="stroke:#181818;stroke-width:0.5;" width="137" x="114" y="50"/><text fill="#000000" font-family="sans-serif" font-size="14" lengthAdjust="spacing" textLength="123" x="121" y="69.9951">Frontend Vivinho</text><rect fill="#E2E2F0" height="30.2969" rx="2.5" ry="2.5" style="stroke:#181818;stroke-width:0.5;" width="137" x="114" y="408.4297"/><text fill="#000000" font-family="sans-serif" font-size="14" lengthAdjust="spacing" textLength="123" x="121" y="428.4248">Frontend Vivinho</text><rect fill="#E2E2F0" height="30.2969" rx="2.5" ry="2.5" style="stroke:#181818;stroke-width:0.5;" width="100" x="272.5" y="50"/><text fill="#000000" font-family="sans-serif" font-size="14" lengthAdjust="spacing" textLength="86" x="279.5" y="69.9951">Barramento</text><rect fill="#E2E2F0" height="30.2969" rx="2.5" ry="2.5" style="stroke:#181818;stroke-width:0.5;" width="100" x="272.5" y="408.4297"/><text fill="#000000" font-family="sans-serif" font-size="14" lengthAdjust="spacing" textLength="86" x="279.5" y="428.4248">Barramento</text><rect fill="#E2E2F0" height="30.2969" rx="2.5" ry="2.5" style="stroke:#181818;stroke-width:0.5;" width="58" x="571.5" y="50"/><text fill="#000000" font-family="sans-serif" font-size="14" lengthAdjust="spacing" textLength="44" x="578.5" y="69.9951">Cache</text><rect fill="#E2E2F0" height="30.2969" rx="2.5" ry="2.5" style="stroke:#181818;stroke-width:0.5;" width="58" x="571.5" y="408.4297"/><text fill="#000000" font-family="sans-serif" font-size="14" lengthAdjust="spacing" textLength="44" x="578.5" y="428.4248">Cache</text><rect fill="#E2E2F0" height="30.2969" rx="2.5" ry="2.5" style="stroke:#181818;stroke-width:0.5;" width="86" x="639.5" y="50"/><text fill="#000000" font-family="sans-serif" font-size="14" lengthAdjust="spacing" textLength="72" x="646.5" y="69.9951">Fatura API</text><rect fill="#E2E2F0" height="30.2969" rx="2.5" ry="2.5" style="stroke:#181818;stroke-width:0.5;" width="86" x="639.5" y="408.4297"/><text fill="#000000" font-family="sans-serif" font-size="14" lengthAdjust="spacing" textLength="72" x="646.5" y="428.4248">Fatura API</text><rect fill="#E2E2F0" height="30.2969" rx="2.5" ry="2.5" style="stroke:#181818;stroke-width:0.5;" width="194" x="897.5" y="50"/><text fill="#000000" font-family="sans-serif" font-size="14" lengthAdjust="spacing" textLength="180" x="904.5" y="69.9951">Dados recebidos das apis</text><rect fill="#E2E2F0" height="30.2969" rx="2.5" ry="2.5" style="stroke:#181818;stroke-width:0.5;" width="194" x="897.5" y="408.4297"/><text fill="#000000" font-family="sans-serif" font-size="14" lengthAdjust="spacing" textLength="180" x="904.5" y="428.4248">Dados recebidos das apis</text><rect fill="#FFFFFF" height="279" style="stroke:#181818;stroke-width:1.0;" width="10" x="177.5" y="112.4297"/><rect fill="#FFFFFF" height="249.8672" style="stroke:#181818;stroke-width:1.0;" width="10" x="317.5" y="141.5625"/><rect fill="#FFFFFF" height="29.1328" style="stroke:#181818;stroke-width:1.0;" width="10" x="595.5" y="194.8281"/><rect fill="#FFFFFF" height="87.3984" style="stroke:#181818;stroke-width:1.0;" width="10" x="677.5" y="267.8984"/><rect fill="#FFFFFF" height="29.1328" style="stroke:#181818;stroke-width:1.0;" width="10" x="989.5" y="297.0313"/><polygon fill="#181818" points="165.5,108.4297,175.5,112.4297,165.5,116.4297,169.5,112.4297" style="stroke:#181818;stroke-width:1.0;"/><line style="stroke:#181818;stroke-width:1.0;" x1="33.5" x2="171.5" y1="112.4297" y2="112.4297"/><text fill="#000000" font-family="sans-serif" font-size="13" lengthAdjust="spacing" textLength="125" x="40.5" y="107.3638">Solicita ver a fatura</text><polygon fill="#181818" points="305.5,137.5625,315.5,141.5625,305.5,145.5625,309.5,141.5625" style="stroke:#181818;stroke-width:1.0;"/><line style="stroke:#181818;stroke-width:1.0;" x1="187.5" x2="311.5" y1="141.5625" y2="141.5625"/><text fill="#000000" font-family="sans-serif" font-size="13" lengthAdjust="spacing" textLength="73" x="194.5" y="136.4966">GET /fatura</text><path d="M262.5,156.5625 L328.5,156.5625 L328.5,163.6953 L318.5,173.6953 L262.5,173.6953 L262.5,156.5625 " fill="#EEEEEE" style="stroke:#000000;stroke-width:1.5;"/><rect fill="none" height="206.7344" style="stroke:#000000;stroke-width:1.5;" width="839" x="262.5" y="156.5625"/><text fill="#000000" font-family="sans-serif" font-size="13" font-weight="bold" lengthAdjust="spacing" textLength="21" x="277.5" y="169.6294">alt</text><text fill="#000000" font-family="sans-serif" font-size="11" font-weight="bold" lengthAdjust="spacing" textLength="158" x="343.5" y="168.7729">[Informa&#231;&#245;es no cache]</text><polygon fill="#181818" points="583.5,190.8281,593.5,194.8281,583.5,198.8281,587.5,194.8281" style="stroke:#181818;stroke-width:1.0;"/><line style="stroke:#181818;stroke-width:1.0;" x1="327.5" x2="589.5" y1="194.8281" y2="194.8281"/><text fill="#000000" font-family="sans-serif" font-size="13" lengthAdjust="spacing" textLength="249" x="334.5" y="189.7622">get_item('cliente_id': ?)['Item']['fatura']</text><polygon fill="#181818" points="338.5,219.9609,328.5,223.9609,338.5,227.9609,334.5,223.9609" style="stroke:#181818;stroke-width:1.0;"/><line style="stroke:#181818;stroke-width:1.0;stroke-dasharray:2.0,2.0;" x1="332.5" x2="599.5" y1="223.9609" y2="223.9609"/><text fill="#000000" font-family="sans-serif" font-size="13" lengthAdjust="spacing" textLength="175" x="344.5" y="218.895">Retorna os dados do cache</text><line style="stroke:#000000;stroke-width:1.0;stroke-dasharray:2.0,2.0;" x1="262.5" x2="1101.5" y1="232.9609" y2="232.9609"/><text fill="#000000" font-family="sans-serif" font-size="11" font-weight="bold" lengthAdjust="spacing" textLength="230" x="267.5" y="243.1714">[Informa&#231;&#245;es n&#227;o est&#227;o no cache]</text><polygon fill="#181818" points="665.5,263.8984,675.5,267.8984,665.5,271.8984,669.5,267.8984" style="stroke:#181818;stroke-width:1.0;"/><line style="stroke:#181818;stroke-width:1.0;" x1="327.5" x2="671.5" y1="267.8984" y2="267.8984"/><text fill="#000000" font-family="sans-serif" font-size="13" lengthAdjust="spacing" textLength="73" x="334.5" y="262.8325">GET /fatura</text><polygon fill="#181818" points="977.5,293.0313,987.5,297.0313,977.5,301.0313,981.5,297.0313" style="stroke:#181818;stroke-width:1.0;"/><line style="stroke:#181818;stroke-width:1.0;" x1="687.5" x2="983.5" y1="297.0313" y2="297.0313"/><text fill="#000000" font-family="sans-serif" font-size="13" lengthAdjust="spacing" textLength="150" x="694.5" y="291.9653">Get dos dados das apis</text><polygon fill="#181818" points="698.5,322.1641,688.5,326.1641,698.5,330.1641,694.5,326.1641" style="stroke:#181818;stroke-width:1.0;"/><line style="stroke:#181818;stroke-width:1.0;stroke-dasharray:2.0,2.0;" x1="692.5" x2="993.5" y1="326.1641" y2="326.1641"/><text fill="#000000" font-family="sans-serif" font-size="13" lengthAdjust="spacing" textLength="278" x="704.5" y="321.0981">Retorna os dados dos servi&#231;os contratados</text><polygon fill="#181818" points="338.5,351.2969,328.5,355.2969,338.5,359.2969,334.5,355.2969" style="stroke:#181818;stroke-width:1.0;"/><line style="stroke:#181818;stroke-width:1.0;stroke-dasharray:2.0,2.0;" x1="332.5" x2="681.5" y1="355.2969" y2="355.2969"/><text fill="#000000" font-family="sans-serif" font-size="13" lengthAdjust="spacing" textLength="106" x="344.5" y="350.231">Retorna a fatura</text><polygon fill="#181818" points="193.5,387.4297,183.5,391.4297,193.5,395.4297,189.5,391.4297" style="stroke:#181818;stroke-width:1.0;"/><line style="stroke:#181818;stroke-width:1.0;stroke-dasharray:2.0,2.0;" x1="187.5" x2="321.5" y1="391.4297" y2="391.4297"/><text fill="#000000" font-family="sans-serif" font-size="13" lengthAdjust="spacing" textLength="106" x="199.5" y="386.3638">Retorna a fatura</text><!--SRC=[VL8xRiCm3Drz2YABso7exg55FcsHhUXl2OA0bPb6W2CP4kCBTSW9UW9VhBBiMluacKHHvEDxZqB1si3amnxHI3q1jD34KOw6fP0vAeR9az6AIQNmAGkfzdNbVxB9zJlcQ0mUI75T6wxziWMAFVaA7msc8XyDmknbLS_prrak-rLBJBK5GuA-P1MbhXHpQJizotaKDRfWUZyadi2RpXmS8nHa067dco8KB0ja6WcD1eaACmXCuFdn7Uw681q78imOLcgdpG7BK_bB5fG6uGs0Jc65wsr9u9juAvaEDx78f7kZhKpZ11vkr_7AfUFDEgu7nXi7qGvTD9Z-XEc0vokvxIi4RvgtBh18QGGIKMPfoBlyqK2Mg-EYXdPnVMiwFCDg8SIXTJbtdSIG1gRDaiSWRjVGXbvoP_mPnHOicKAM9nS9jrQ3NBtqBHX1UteNx6m_q1c8IgBxE0EBplt9wsYTtzIVqeVv0m00]--></g></svg>