<?xml version="1.0" encoding="us-ascii" standalone="no"?><svg xmlns="http://www.w3.org/2000/svg" xmlns:xlink="http://www.w3.org/1999/xlink" contentStyleType="text/css" height="490px" preserveAspectRatio="none" style="width:1434px;height:490px;background:#FFFFFF;" version="1.1" viewBox="0 0 1434 490" width="1434px" zoomAndPan="magnify"><defs/><g><rect fill="#FFFFFF" height="279" style="stroke:#181818;stroke-width:1.0;" width="10" x="361.5" y="112.4297"/><rect fill="#FFFFFF" height="249.8672" style="stroke:#181818;stroke-width:1.0;" width="10" x="634.5" y="141.5625"/><rect fill="#FFFFFF" height="29.1328" style="stroke:#181818;stroke-width:1.0;" width="10" x="901.5" y="194.8281"/><rect fill="#FFFFFF" height="87.3984" style="stroke:#181818;stroke-width:1.0;" width="10" x="1017" y="267.8984"/><rect fill="#FFFFFF" height="29.1328" style="stroke:#181818;stroke-width:1.0;" width="10" x="1290" y="297.0313"/><rect fill="none" height="206.7344" style="stroke:#000000;stroke-width:1.5;" width="847.5" x="579.5" y="156.5625"/><line style="stroke:#181818;stroke-width:0.5;stroke-dasharray:5.0,5.0;" x1="33" x2="33" y1="81.2969" y2="409.4297"/><line style="stroke:#181818;stroke-width:0.5;stroke-dasharray:5.0,5.0;" x1="366" x2="366" y1="81.2969" y2="409.4297"/><line style="stroke:#181818;stroke-width:0.5;stroke-dasharray:5.0,5.0;" x1="639.5" x2="639.5" y1="81.2969" y2="409.4297"/><line style="stroke:#181818;stroke-width:0.5;stroke-dasharray:5.0,5.0;" x1="906.5" x2="906.5" y1="81.2969" y2="409.4297"/><line style="stroke:#181818;stroke-width:0.5;stroke-dasharray:5.0,5.0;" x1="1021.5" x2="1021.5" y1="81.2969" y2="409.4297"/><line style="stroke:#181818;stroke-width:0.5;stroke-dasharray:5.0,5.0;" x1="1295" x2="1295" y1="81.2969" y2="409.4297"/><text fill="#000000" font-family="sans-serif" font-size="14" lengthAdjust="spacing" textLength="51" x="5" y="77.9951">Usuario</text><ellipse cx="33.5" cy="13.5" fill="#E2E2F0" rx="8" ry="8" style="stroke:#181818;stroke-width:0.5;"/><path d="M33.5,21.5 L33.5,48.5 M20.5,29.5 L46.5,29.5 M33.5,48.5 L20.5,63.5 M33.5,48.5 L46.5,63.5 " fill="none" style="stroke:#181818;stroke-width:0.5;"/><text fill="#000000" font-family="sans-serif" font-size="14" lengthAdjust="spacing" textLength="51" x="5" y="421.4248">Usuario</text><ellipse cx="33.5" cy="433.2266" fill="#E2E2F0" rx="8" ry="8" style="stroke:#181818;stroke-width:0.5;"/><path d="M33.5,441.2266 L33.5,468.2266 M20.5,449.2266 L46.5,449.2266 M33.5,468.2266 L20.5,483.2266 M33.5,468.2266 L46.5,483.2266 " fill="none" style="stroke:#181818;stroke-width:0.5;"/><rect fill="#E2E2F0" height="30.2969" rx="2.5" ry="2.5" style="stroke:#181818;stroke-width:0.5;" width="137" x="298" y="50"/><text fill="#000000" font-family="sans-serif" font-size="14" lengthAdjust="spacing" textLength="123" x="305" y="69.9951">Frontend Vivinho</text><rect fill="#E2E2F0" height="30.2969" rx="2.5" ry="2.5" style="stroke:#181818;stroke-width:0.5;" width="137" x="298" y="408.4297"/><text fill="#000000" font-family="sans-serif" font-size="14" lengthAdjust="spacing" textLength="123" x="305" y="428.4248">Frontend Vivinho</text><rect fill="#E2E2F0" height="30.2969" rx="2.5" ry="2.5" style="stroke:#181818;stroke-width:0.5;" width="100" x="589.5" y="50"/><text fill="#000000" font-family="sans-serif" font-size="14" lengthAdjust="spacing" textLength="86" x="596.5" y="69.9951">Barramento</text><rect fill="#E2E2F0" height="30.2969" rx="2.5" ry="2.5" style="stroke:#181818;stroke-width:0.5;" width="100" x="589.5" y="408.4297"/><text fill="#000000" font-family="sans-serif" font-size="14" lengthAdjust="spacing" textLength="86" x="596.5" y="428.4248">Barramento</text><rect fill="#E2E2F0" height="30.2969" rx="2.5" ry="2.5" style="stroke:#181818;stroke-width:0.5;" width="58" x="877.5" y="50"/><text fill="#000000" font-family="sans-serif" font-size="14" lengthAdjust="spacing" textLength="44" x="884.5" y="69.9951">Cache</text><rect fill="#E2E2F0" height="30.2969" rx="2.5" ry="2.5" style="stroke:#181818;stroke-width:0.5;" width="58" x="877.5" y="408.4297"/><text fill="#000000" font-family="sans-serif" font-size="14" lengthAdjust="spacing" textLength="44" x="884.5" y="428.4248">Cache</text><rect fill="#E2E2F0" height="30.2969" rx="2.5" ry="2.5" style="stroke:#181818;stroke-width:0.5;" width="153" x="945.5" y="50"/><text fill="#000000" font-family="sans-serif" font-size="14" lengthAdjust="spacing" textLength="139" x="952.5" y="69.9951">Outros Servi&#231;os API</text><rect fill="#E2E2F0" height="30.2969" rx="2.5" ry="2.5" style="stroke:#181818;stroke-width:0.5;" width="153" x="945.5" y="408.4297"/><text fill="#000000" font-family="sans-serif" font-size="14" lengthAdjust="spacing" textLength="139" x="952.5" y="428.4248">Outros Servi&#231;os API</text><rect fill="#E2E2F0" height="30.2969" rx="2.5" ry="2.5" style="stroke:#181818;stroke-width:0.5;" width="244" x="1173" y="50"/><text fill="#000000" font-family="sans-serif" font-size="14" lengthAdjust="spacing" textLength="230" x="1180" y="69.9951">Banco de Dados Outros Servi&#231;os</text><rect fill="#E2E2F0" height="30.2969" rx="2.5" ry="2.5" style="stroke:#181818;stroke-width:0.5;" width="244" x="1173" y="408.4297"/><text fill="#000000" font-family="sans-serif" font-size="14" lengthAdjust="spacing" textLength="230" x="1180" y="428.4248">Banco de Dados Outros Servi&#231;os</text><rect fill="#FFFFFF" height="279" style="stroke:#181818;stroke-width:1.0;" width="10" x="361.5" y="112.4297"/><rect fill="#FFFFFF" height="249.8672" style="stroke:#181818;stroke-width:1.0;" width="10" x="634.5" y="141.5625"/><rect fill="#FFFFFF" height="29.1328" style="stroke:#181818;stroke-width:1.0;" width="10" x="901.5" y="194.8281"/><rect fill="#FFFFFF" height="87.3984" style="stroke:#181818;stroke-width:1.0;" width="10" x="1017" y="267.8984"/><rect fill="#FFFFFF" height="29.1328" style="stroke:#181818;stroke-width:1.0;" width="10" x="1290" y="297.0313"/><polygon fill="#181818" points="349.5,108.4297,359.5,112.4297,349.5,116.4297,353.5,112.4297" style="stroke:#181818;stroke-width:1.0;"/><line style="stroke:#181818;stroke-width:1.0;" x1="33.5" x2="355.5" y1="112.4297" y2="112.4297"/><text fill="#000000" font-family="sans-serif" font-size="13" lengthAdjust="spacing" textLength="309" x="40.5" y="107.3638">Solicita ver todos os servi&#231;os de TV e Streaming</text><polygon fill="#181818" points="622.5,137.5625,632.5,141.5625,622.5,145.5625,626.5,141.5625" style="stroke:#181818;stroke-width:1.0;"/><line style="stroke:#181818;stroke-width:1.0;" x1="371.5" x2="628.5" y1="141.5625" y2="141.5625"/><text fill="#000000" font-family="sans-serif" font-size="13" lengthAdjust="spacing" textLength="124" x="378.5" y="136.4966">GET /planos_outros</text><path d="M579.5,156.5625 L645.5,156.5625 L645.5,163.6953 L635.5,173.6953 L579.5,173.6953 L579.5,156.5625 " fill="#EEEEEE" style="stroke:#000000;stroke-width:1.5;"/><rect fill="none" height="206.7344" style="stroke:#000000;stroke-width:1.5;" width="847.5" x="579.5" y="156.5625"/><text fill="#000000" font-family="sans-serif" font-size="13" font-weight="bold" lengthAdjust="spacing" textLength="21" x="594.5" y="169.6294">alt</text><text fill="#000000" font-family="sans-serif" font-size="11" font-weight="bold" lengthAdjust="spacing" textLength="158" x="660.5" y="168.7729">[Informa&#231;&#245;es no cache]</text><polygon fill="#181818" points="889.5,190.8281,899.5,194.8281,889.5,198.8281,893.5,194.8281" style="stroke:#181818;stroke-width:1.0;"/><line style="stroke:#181818;stroke-width:1.0;" x1="644.5" x2="895.5" y1="194.8281" y2="194.8281"/><text fill="#000000" font-family="sans-serif" font-size="13" lengthAdjust="spacing" textLength="238" x="651.5" y="189.7622">get_item('planos_tv')['Item']['planos']</text><polygon fill="#181818" points="655.5,219.9609,645.5,223.9609,655.5,227.9609,651.5,223.9609" style="stroke:#181818;stroke-width:1.0;"/><line style="stroke:#181818;stroke-width:1.0;stroke-dasharray:2.0,2.0;" x1="649.5" x2="905.5" y1="223.9609" y2="223.9609"/><text fill="#000000" font-family="sans-serif" font-size="13" lengthAdjust="spacing" textLength="175" x="661.5" y="218.895">Retorna os dados do cache</text><line style="stroke:#000000;stroke-width:1.0;stroke-dasharray:2.0,2.0;" x1="579.5" x2="1427" y1="232.9609" y2="232.9609"/><text fill="#000000" font-family="sans-serif" font-size="11" font-weight="bold" lengthAdjust="spacing" textLength="230" x="584.5" y="243.1714">[Informa&#231;&#245;es n&#227;o est&#227;o no cache]</text><polygon fill="#181818" points="1005,263.8984,1015,267.8984,1005,271.8984,1009,267.8984" style="stroke:#181818;stroke-width:1.0;"/><line style="stroke:#181818;stroke-width:1.0;" x1="644.5" x2="1011" y1="267.8984" y2="267.8984"/><text fill="#000000" font-family="sans-serif" font-size="13" lengthAdjust="spacing" textLength="68" x="651.5" y="262.8325">GET /plans</text><polygon fill="#181818" points="1278,293.0313,1288,297.0313,1278,301.0313,1282,297.0313" style="stroke:#181818;stroke-width:1.0;"/><line style="stroke:#181818;stroke-width:1.0;" x1="1027" x2="1284" y1="297.0313" y2="297.0313"/><text fill="#000000" font-family="sans-serif" font-size="13" lengthAdjust="spacing" textLength="150" x="1034" y="291.9653">SELECT * FROM planos;</text><polygon fill="#181818" points="1038,322.1641,1028,326.1641,1038,330.1641,1034,326.1641" style="stroke:#181818;stroke-width:1.0;"/><line style="stroke:#181818;stroke-width:1.0;stroke-dasharray:2.0,2.0;" x1="1032" x2="1294" y1="326.1641" y2="326.1641"/><text fill="#000000" font-family="sans-serif" font-size="13" lengthAdjust="spacing" textLength="239" x="1044" y="321.0981">Retorna os planos de TV e Streaming</text><polygon fill="#181818" points="655.5,351.2969,645.5,355.2969,655.5,359.2969,651.5,355.2969" style="stroke:#181818;stroke-width:1.0;"/><line style="stroke:#181818;stroke-width:1.0;stroke-dasharray:2.0,2.0;" x1="649.5" x2="1021" y1="355.2969" y2="355.2969"/><text fill="#000000" font-family="sans-serif" font-size="13" lengthAdjust="spacing" textLength="239" x="661.5" y="350.231">Retorna os planos de TV e Streaming</text><polygon fill="#181818" points="377.5,387.4297,367.5,391.4297,377.5,395.4297,373.5,391.4297" style="stroke:#181818;stroke-width:1.0;"/><line style="stroke:#181818;stroke-width:1.0;stroke-dasharray:2.0,2.0;" x1="371.5" x2="638.5" y1="391.4297" y2="391.4297"/><text fill="#000000" font-family="sans-serif" font-size="13" lengthAdjust="spacing" textLength="239" x="383.5" y="386.3638">Retorna os planos de TV e Streaming</text><!--SRC=[dLFBQiCm4BpxAvPSt1P2xoaKyYo1bfGapIM4iDZRHE18HjhuXth85_GB_6ELPIT-9PGM3997ezdHQ8K1AmsT3tD4BLG7q40nzsBKB08HesJeJBIIJ3A4bKY4tEVCCrXWzHq3r1eF93ddbhzrsX23FJc6czKNPqVMoi22T2BIavtrtwUEcoyuF52c7ujcRHae20b66AepkvIv8Z4QU5vnSEW-Dq_MWuMAh3eZ9AI1LQPgFtCnPcijLq2mO4ru47BdOS0YGQPMIbu3oEgLwVJWPRo4npX2gSnMEPEbLYL53oE6gVnK-e3fAVqc0r91u4A42Z6JTz7sO4Uy5Ko7Ex-GvyI_N_jJ2_cRTG7w6xlzKd1OwBaHkWshSxBT8p6B8dH9XwM3a5eY7aM6cfxJBmLaE1jk-czTToKbKxNRxWjeOst5qS3UyFXrF5p20qpcipV8itYwhMqR1bgG2-YAsKfEkV2LVgabzcijTupRj_6VAbbQjYiRuLzx37ykL6dR6jvG_W40]--></g></svg>