<?xml version="1.0" encoding="us-ascii" standalone="no"?><svg xmlns="http://www.w3.org/2000/svg" xmlns:xlink="http://www.w3.org/1999/xlink" contentStyleType="text/css" height="490px" preserveAspectRatio="none" style="width:1586px;height:490px;background:#FFFFFF;" version="1.1" viewBox="0 0 1586 490" width="1586px" zoomAndPan="magnify"><defs/><g><rect fill="#FFFFFF" height="279" style="stroke:#181818;stroke-width:1.0;" width="10" x="318.5" y="112.4297"/><rect fill="#FFFFFF" height="249.8672" style="stroke:#181818;stroke-width:1.0;" width="10" x="581.5" y="141.5625"/><rect fill="#FFFFFF" height="29.1328" style="stroke:#181818;stroke-width:1.0;" width="10" x="957.5" y="194.8281"/><rect fill="#FFFFFF" height="87.3984" style="stroke:#181818;stroke-width:1.0;" width="10" x="1050.5" y="267.8984"/><rect fill="#FFFFFF" height="29.1328" style="stroke:#181818;stroke-width:1.0;" width="10" x="1464.5" y="297.0313"/><rect fill="none" height="206.7344" style="stroke:#000000;stroke-width:1.5;" width="1052.5" x="526.5" y="156.5625"/><line style="stroke:#181818;stroke-width:0.5;stroke-dasharray:5.0,5.0;" x1="33" x2="33" y1="81.2969" y2="409.4297"/><line style="stroke:#181818;stroke-width:0.5;stroke-dasharray:5.0,5.0;" x1="323" x2="323" y1="81.2969" y2="409.4297"/><line style="stroke:#181818;stroke-width:0.5;stroke-dasharray:5.0,5.0;" x1="586.5" x2="586.5" y1="81.2969" y2="409.4297"/><line style="stroke:#181818;stroke-width:0.5;stroke-dasharray:5.0,5.0;" x1="962.5" x2="962.5" y1="81.2969" y2="409.4297"/><line style="stroke:#181818;stroke-width:0.5;stroke-dasharray:5.0,5.0;" x1="1055.5" x2="1055.5" y1="81.2969" y2="409.4297"/><line style="stroke:#181818;stroke-width:0.5;stroke-dasharray:5.0,5.0;" x1="1469" x2="1469" y1="81.2969" y2="409.4297"/><text fill="#000000" font-family="sans-serif" font-size="14" lengthAdjust="spacing" textLength="51" x="5" y="77.9951">Usuario</text><ellipse cx="33.5" cy="13.5" fill="#E2E2F0" rx="8" ry="8" style="stroke:#181818;stroke-width:0.5;"/><path d="M33.5,21.5 L33.5,48.5 M20.5,29.5 L46.5,29.5 M33.5,48.5 L20.5,63.5 M33.5,48.5 L46.5,63.5 " fill="none" style="stroke:#181818;stroke-width:0.5;"/><text fill="#000000" font-family="sans-serif" font-size="14" lengthAdjust="spacing" textLength="51" x="5" y="421.4248">Usuario</text><ellipse cx="33.5" cy="433.2266" fill="#E2E2F0" rx="8" ry="8" style="stroke:#181818;stroke-width:0.5;"/><path d="M33.5,441.2266 L33.5,468.2266 M20.5,449.2266 L46.5,449.2266 M33.5,468.2266 L20.5,483.2266 M33.5,468.2266 L46.5,483.2266 " fill="none" style="stroke:#181818;stroke-width:0.5;"/><rect fill="#E2E2F0" height="30.2969" rx="2.5" ry="2.5" style="stroke:#181818;stroke-width:0.5;" width="137" x="255" y="50"/><text fill="#000000" font-family="sans-serif" font-size="14" lengthAdjust="spacing" textLength="123" x="262" y="69.9951">Frontend Vivinho</text><rect fill="#E2E2F0" height="30.2969" rx="2.5" ry="2.5" style="stroke:#181818;stroke-width:0.5;" width="137" x="255" y="408.4297"/><text fill="#000000" font-family="sans-serif" font-size="14" lengthAdjust="spacing" textLength="123" x="262" y="428.4248">Frontend Vivinho</text><rect fill="#E2E2F0" height="30.2969" rx="2.5" ry="2.5" style="stroke:#181818;stroke-width:0.5;" width="100" x="536.5" y="50"/><text fill="#000000" font-family="sans-serif" font-size="14" lengthAdjust="spacing" textLength="86" x="543.5" y="69.9951">Barramento</text><rect fill="#E2E2F0" height="30.2969" rx="2.5" ry="2.5" style="stroke:#181818;stroke-width:0.5;" width="100" x="536.5" y="408.4297"/><text fill="#000000" font-family="sans-serif" font-size="14" lengthAdjust="spacing" textLength="86" x="543.5" y="428.4248">Barramento</text><rect fill="#E2E2F0" height="30.2969" rx="2.5" ry="2.5" style="stroke:#181818;stroke-width:0.5;" width="58" x="933.5" y="50"/><text fill="#000000" font-family="sans-serif" font-size="14" lengthAdjust="spacing" textLength="44" x="940.5" y="69.9951">Cache</text><rect fill="#E2E2F0" height="30.2969" rx="2.5" ry="2.5" style="stroke:#181818;stroke-width:0.5;" width="58" x="933.5" y="408.4297"/><text fill="#000000" font-family="sans-serif" font-size="14" lengthAdjust="spacing" textLength="44" x="940.5" y="428.4248">Cache</text><rect fill="#E2E2F0" height="30.2969" rx="2.5" ry="2.5" style="stroke:#181818;stroke-width:0.5;" width="108" x="1001.5" y="50"/><text fill="#000000" font-family="sans-serif" font-size="14" lengthAdjust="spacing" textLength="94" x="1008.5" y="69.9951">Telefonia API</text><rect fill="#E2E2F0" height="30.2969" rx="2.5" ry="2.5" style="stroke:#181818;stroke-width:0.5;" width="108" x="1001.5" y="408.4297"/><text fill="#000000" font-family="sans-serif" font-size="14" lengthAdjust="spacing" textLength="94" x="1008.5" y="428.4248">Telefonia API</text><rect fill="#E2E2F0" height="30.2969" rx="2.5" ry="2.5" style="stroke:#181818;stroke-width:0.5;" width="199" x="1370" y="50"/><text fill="#000000" font-family="sans-serif" font-size="14" lengthAdjust="spacing" textLength="185" x="1377" y="69.9951">Banco de Dados Telefonia</text><rect fill="#E2E2F0" height="30.2969" rx="2.5" ry="2.5" style="stroke:#181818;stroke-width:0.5;" width="199" x="1370" y="408.4297"/><text fill="#000000" font-family="sans-serif" font-size="14" lengthAdjust="spacing" textLength="185" x="1377" y="428.4248">Banco de Dados Telefonia</text><rect fill="#FFFFFF" height="279" style="stroke:#181818;stroke-width:1.0;" width="10" x="318.5" y="112.4297"/><rect fill="#FFFFFF" height="249.8672" style="stroke:#181818;stroke-width:1.0;" width="10" x="581.5" y="141.5625"/><rect fill="#FFFFFF" height="29.1328" style="stroke:#181818;stroke-width:1.0;" width="10" x="957.5" y="194.8281"/><rect fill="#FFFFFF" height="87.3984" style="stroke:#181818;stroke-width:1.0;" width="10" x="1050.5" y="267.8984"/><rect fill="#FFFFFF" height="29.1328" style="stroke:#181818;stroke-width:1.0;" width="10" x="1464.5" y="297.0313"/><polygon fill="#181818" points="306.5,108.4297,316.5,112.4297,306.5,116.4297,310.5,112.4297" style="stroke:#181818;stroke-width:1.0;"/><line style="stroke:#181818;stroke-width:1.0;" x1="33.5" x2="312.5" y1="112.4297" y2="112.4297"/><text fill="#000000" font-family="sans-serif" font-size="13" lengthAdjust="spacing" textLength="266" x="40.5" y="107.3638">Solicita ver todos os servi&#231;os de telefonia</text><polygon fill="#181818" points="569.5,137.5625,579.5,141.5625,569.5,145.5625,573.5,141.5625" style="stroke:#181818;stroke-width:1.0;"/><line style="stroke:#181818;stroke-width:1.0;" x1="328.5" x2="575.5" y1="141.5625" y2="141.5625"/><text fill="#000000" font-family="sans-serif" font-size="13" lengthAdjust="spacing" textLength="234" x="335.5" y="136.4966">GET /servicos_contratados_telefonia</text><path d="M526.5,156.5625 L592.5,156.5625 L592.5,163.6953 L582.5,173.6953 L526.5,173.6953 L526.5,156.5625 " fill="#EEEEEE" style="stroke:#000000;stroke-width:1.5;"/><rect fill="none" height="206.7344" style="stroke:#000000;stroke-width:1.5;" width="1052.5" x="526.5" y="156.5625"/><text fill="#000000" font-family="sans-serif" font-size="13" font-weight="bold" lengthAdjust="spacing" textLength="21" x="541.5" y="169.6294">alt</text><text fill="#000000" font-family="sans-serif" font-size="11" font-weight="bold" lengthAdjust="spacing" textLength="158" x="607.5" y="168.7729">[Informa&#231;&#245;es no cache]</text><polygon fill="#181818" points="945.5,190.8281,955.5,194.8281,945.5,198.8281,949.5,194.8281" style="stroke:#181818;stroke-width:1.0;"/><line style="stroke:#181818;stroke-width:1.0;" x1="591.5" x2="951.5" y1="194.8281" y2="194.8281"/><text fill="#000000" font-family="sans-serif" font-size="13" lengthAdjust="spacing" textLength="347" x="598.5" y="189.7622">get_item('cliente_id': ?)['Item']['servicos_contratados']</text><polygon fill="#181818" points="602.5,219.9609,592.5,223.9609,602.5,227.9609,598.5,223.9609" style="stroke:#181818;stroke-width:1.0;"/><line style="stroke:#181818;stroke-width:1.0;stroke-dasharray:2.0,2.0;" x1="596.5" x2="961.5" y1="223.9609" y2="223.9609"/><text fill="#000000" font-family="sans-serif" font-size="13" lengthAdjust="spacing" textLength="175" x="608.5" y="218.895">Retorna os dados do cache</text><line style="stroke:#000000;stroke-width:1.0;stroke-dasharray:2.0,2.0;" x1="526.5" x2="1579" y1="232.9609" y2="232.9609"/><text fill="#000000" font-family="sans-serif" font-size="11" font-weight="bold" lengthAdjust="spacing" textLength="230" x="531.5" y="243.1714">[Informa&#231;&#245;es n&#227;o est&#227;o no cache]</text><polygon fill="#181818" points="1038.5,263.8984,1048.5,267.8984,1038.5,271.8984,1042.5,267.8984" style="stroke:#181818;stroke-width:1.0;"/><line style="stroke:#181818;stroke-width:1.0;" x1="591.5" x2="1044.5" y1="267.8984" y2="267.8984"/><text fill="#000000" font-family="sans-serif" font-size="13" lengthAdjust="spacing" textLength="87" x="598.5" y="262.8325">GET /services</text><polygon fill="#181818" points="1452.5,293.0313,1462.5,297.0313,1452.5,301.0313,1456.5,297.0313" style="stroke:#181818;stroke-width:1.0;"/><line style="stroke:#181818;stroke-width:1.0;" x1="1060.5" x2="1458.5" y1="297.0313" y2="297.0313"/><text fill="#000000" font-family="sans-serif" font-size="13" lengthAdjust="spacing" textLength="385" x="1067.5" y="291.9653">SELECT * FROM servicos_contratados WHERE cliente_id = ?;</text><polygon fill="#181818" points="1071.5,322.1641,1061.5,326.1641,1071.5,330.1641,1067.5,326.1641" style="stroke:#181818;stroke-width:1.0;"/><line style="stroke:#181818;stroke-width:1.0;stroke-dasharray:2.0,2.0;" x1="1065.5" x2="1468.5" y1="326.1641" y2="326.1641"/><text fill="#000000" font-family="sans-serif" font-size="13" lengthAdjust="spacing" textLength="288" x="1077.5" y="321.0981">Retorna os servicos contratados de telefonia</text><polygon fill="#181818" points="602.5,351.2969,592.5,355.2969,602.5,359.2969,598.5,355.2969" style="stroke:#181818;stroke-width:1.0;"/><line style="stroke:#181818;stroke-width:1.0;stroke-dasharray:2.0,2.0;" x1="596.5" x2="1054.5" y1="355.2969" y2="355.2969"/><text fill="#000000" font-family="sans-serif" font-size="13" lengthAdjust="spacing" textLength="288" x="608.5" y="350.231">Retorna os servicos contratados de telefonia</text><polygon fill="#181818" points="334.5,387.4297,324.5,391.4297,334.5,395.4297,330.5,391.4297" style="stroke:#181818;stroke-width:1.0;"/><line style="stroke:#181818;stroke-width:1.0;stroke-dasharray:2.0,2.0;" x1="328.5" x2="585.5" y1="391.4297" y2="391.4297"/><text fill="#000000" font-family="sans-serif" font-size="13" lengthAdjust="spacing" textLength="196" x="340.5" y="386.3638">Retorna os planos de telefonia</text><!--SRC=[dLDBJiCm4Dtd5ADk0aWL-oAe-acX4WXK2YogAXevKsefjIlRz48iUW9Ea8lXk9_OQSe2APBjyVDxCsyco8nKq7hJNwYuR05gsE-ZDIh36L-ZCD0QAIaCYGpU-OQBvGvv2EvZuOi-AeKh4cQ7hOuXR81iIGxXTk7bb79QIC4HUYzZ1pf6UcjUrnDCGaOmn4nwmF3Pi1z5-mAXVLUle0ElChUC1c532emicUodIMruiRKxosyEN14ompTewCI8g1OefIe3Ed2VJE7QaJAfKsQn2asPTjf0xZc7kO6nM4Yrmc9R_9068O4vty33bNBEpGvyaacveTL5p79kxoZbMTo1xkKi7jjmF9_5JNd4Sqjup62mLt0hj6l5JCYEaC3IfynPdrKvPNH24b6kgLv5yIs1j2cNinNvhGyi9Eqd6qm81CU0PTYttKuUay4Khc0qUNw29YFWuo6P952P1xVGlMdKiwC5_iaP5IRjMNKG0ryicAx0lJCghgZp_VYlI6cTdTvQ2vh-5qzidQFuazuRv21U8_q5]--></g></svg>