<?xml version="1.0" encoding="us-ascii" standalone="no"?><svg xmlns="http://www.w3.org/2000/svg" xmlns:xlink="http://www.w3.org/1999/xlink" contentStyleType="text/css" height="327px" preserveAspectRatio="none" style="width:1014px;height:327px;background:#FFFFFF;" version="1.1" viewBox="0 0 1014 327" width="1014px" zoomAndPan="magnify"><defs/><g><rect fill="#FFFFFF" height="116.5313" style="stroke:#181818;stroke-width:1.0;" width="10" x="168.5" y="112.4297"/><rect fill="#FFFFFF" height="87.3984" style="stroke:#181818;stroke-width:1.0;" width="10" x="483.5" y="141.5625"/><rect fill="#FFFFFF" height="29.1328" style="stroke:#181818;stroke-width:1.0;" width="10" x="889.5" y="170.6953"/><line style="stroke:#181818;stroke-width:0.5;stroke-dasharray:5.0,5.0;" x1="33" x2="33" y1="81.2969" y2="246.9609"/><line style="stroke:#181818;stroke-width:0.5;stroke-dasharray:5.0,5.0;" x1="173" x2="173" y1="81.2969" y2="246.9609"/><line style="stroke:#181818;stroke-width:0.5;stroke-dasharray:5.0,5.0;" x1="488.5" x2="488.5" y1="81.2969" y2="246.9609"/><line style="stroke:#181818;stroke-width:0.5;stroke-dasharray:5.0,5.0;" x1="894" x2="894" y1="81.2969" y2="246.9609"/><text fill="#000000" font-family="sans-serif" font-size="14" lengthAdjust="spacing" textLength="51" x="5" y="77.9951">Usuario</text><ellipse cx="33.5" cy="13.5" fill="#E2E2F0" rx="8" ry="8" style="stroke:#181818;stroke-width:0.5;"/><path d="M33.5,21.5 L33.5,48.5 M20.5,29.5 L46.5,29.5 M33.5,48.5 L20.5,63.5 M33.5,48.5 L46.5,63.5 " fill="none" style="stroke:#181818;stroke-width:0.5;"/><text fill="#000000" font-family="sans-serif" font-size="14" lengthAdjust="spacing" textLength="51" x="5" y="258.9561">Usuario</text><ellipse cx="33.5" cy="270.7578" fill="#E2E2F0" rx="8" ry="8" style="stroke:#181818;stroke-width:0.5;"/><path d="M33.5,278.7578 L33.5,305.7578 M20.5,286.7578 L46.5,286.7578 M33.5,305.7578 L20.5,320.7578 M33.5,305.7578 L46.5,320.7578 " fill="none" style="stroke:#181818;stroke-width:0.5;"/><rect fill="#E2E2F0" height="30.2969" rx="2.5" ry="2.5" style="stroke:#181818;stroke-width:0.5;" width="137" x="105" y="50"/><text fill="#000000" font-family="sans-serif" font-size="14" lengthAdjust="spacing" textLength="123" x="112" y="69.9951">Frontend Vivinho</text><rect fill="#E2E2F0" height="30.2969" rx="2.5" ry="2.5" style="stroke:#181818;stroke-width:0.5;" width="137" x="105" y="245.9609"/><text fill="#000000" font-family="sans-serif" font-size="14" lengthAdjust="spacing" textLength="123" x="112" y="265.9561">Frontend Vivinho</text><rect fill="#E2E2F0" height="30.2969" rx="2.5" ry="2.5" style="stroke:#181818;stroke-width:0.5;" width="136" x="420.5" y="50"/><text fill="#000000" font-family="sans-serif" font-size="14" lengthAdjust="spacing" textLength="122" x="427.5" y="69.9951">Autentica&#231;&#227;o API</text><rect fill="#E2E2F0" height="30.2969" rx="2.5" ry="2.5" style="stroke:#181818;stroke-width:0.5;" width="136" x="420.5" y="245.9609"/><text fill="#000000" font-family="sans-serif" font-size="14" lengthAdjust="spacing" textLength="122" x="427.5" y="265.9561">Autentica&#231;&#227;o API</text><rect fill="#E2E2F0" height="30.2969" rx="2.5" ry="2.5" style="stroke:#181818;stroke-width:0.5;" width="227" x="781" y="50"/><text fill="#000000" font-family="sans-serif" font-size="14" lengthAdjust="spacing" textLength="213" x="788" y="69.9951">Banco de Dados Autentica&#231;&#227;o</text><rect fill="#E2E2F0" height="30.2969" rx="2.5" ry="2.5" style="stroke:#181818;stroke-width:0.5;" width="227" x="781" y="245.9609"/><text fill="#000000" font-family="sans-serif" font-size="14" lengthAdjust="spacing" textLength="213" x="788" y="265.9561">Banco de Dados Autentica&#231;&#227;o</text><rect fill="#FFFFFF" height="116.5313" style="stroke:#181818;stroke-width:1.0;" width="10" x="168.5" y="112.4297"/><rect fill="#FFFFFF" height="87.3984" style="stroke:#181818;stroke-width:1.0;" width="10" x="483.5" y="141.5625"/><rect fill="#FFFFFF" height="29.1328" style="stroke:#181818;stroke-width:1.0;" width="10" x="889.5" y="170.6953"/><polygon fill="#181818" points="156.5,108.4297,166.5,112.4297,156.5,116.4297,160.5,112.4297" style="stroke:#181818;stroke-width:1.0;"/><line style="stroke:#181818;stroke-width:1.0;" x1="33.5" x2="162.5" y1="112.4297" y2="112.4297"/><text fill="#000000" font-family="sans-serif" font-size="13" lengthAdjust="spacing" textLength="116" x="40.5" y="107.3638">Solicita fazer login</text><polygon fill="#181818" points="471.5,137.5625,481.5,141.5625,471.5,145.5625,475.5,141.5625" style="stroke:#181818;stroke-width:1.0;"/><line style="stroke:#181818;stroke-width:1.0;" x1="178.5" x2="477.5" y1="141.5625" y2="141.5625"/><text fill="#000000" font-family="sans-serif" font-size="13" lengthAdjust="spacing" textLength="72" x="185.5" y="136.4966">POST /login</text><polygon fill="#181818" points="877.5,166.6953,887.5,170.6953,877.5,174.6953,881.5,170.6953" style="stroke:#181818;stroke-width:1.0;"/><line style="stroke:#181818;stroke-width:1.0;" x1="493.5" x2="883.5" y1="170.6953" y2="170.6953"/><text fill="#000000" font-family="sans-serif" font-size="13" lengthAdjust="spacing" textLength="377" x="500.5" y="165.6294">SELECT * FROM usuarios WHERE email = ? AND senha = ?;</text><polygon fill="#181818" points="504.5,195.8281,494.5,199.8281,504.5,203.8281,500.5,199.8281" style="stroke:#181818;stroke-width:1.0;"/><line style="stroke:#181818;stroke-width:1.0;stroke-dasharray:2.0,2.0;" x1="498.5" x2="893.5" y1="199.8281" y2="199.8281"/><text fill="#000000" font-family="sans-serif" font-size="13" lengthAdjust="spacing" textLength="114" x="510.5" y="194.7622">Retorna o usuario</text><polygon fill="#181818" points="184.5,224.9609,174.5,228.9609,184.5,232.9609,180.5,228.9609" style="stroke:#181818;stroke-width:1.0;"/><line style="stroke:#181818;stroke-width:1.0;stroke-dasharray:2.0,2.0;" x1="178.5" x2="487.5" y1="228.9609" y2="228.9609"/><text fill="#000000" font-family="sans-serif" font-size="13" lengthAdjust="spacing" textLength="281" x="190.5" y="223.895">Retorna o token de autentica&#231;&#227;o do usuario</text><!--SRC=[ZL5BJiCm4Dtx54zP8bNiYm0b91L8GAkqm7ha66eHF97ZTC5rM72GNWmdJQ5n8z6TvutVPsP8EhQ8dkg6hEO8LAD_Yugiqr9NP1oYcMNZb2dmh3VQh7S_zs2F3Hbnurk-fEttzeiHB-uwpYyiYUDA3pa96Sae558g-E1l9t54JnCX-h2ON8LffbXowPKTuPK-bKN9Rze8aavloAcZy280MiaWx1IB-NA5yq0f72ceGw4qyT6o- -ncXJFCyla3cjqGDLvkipo3-Y1TuXBNY1zJrCgigQqknXtz5eOb9cF9S-KFRGYyTnE5EaMl6s1ikt-2Zj-LQQz6mvCN_tgrspfe1Hu_]--></g></svg>