<?xml version="1.0" encoding="us-ascii" standalone="no"?><svg xmlns="http://www.w3.org/2000/svg" xmlns:xlink="http://www.w3.org/1999/xlink" contentStyleType="text/css" height="490px" preserveAspectRatio="none" style="width:1303px;height:490px;background:#FFFFFF;" version="1.1" viewBox="0 0 1303 490" width="1303px" zoomAndPan="magnify"><defs/><g><rect fill="#FFFFFF" height="279" style="stroke:#181818;stroke-width:1.0;" width="10" x="318.5" y="112.4297"/><rect fill="#FFFFFF" height="249.8672" style="stroke:#181818;stroke-width:1.0;" width="10" x="548.5" y="141.5625"/><rect fill="#FFFFFF" height="29.1328" style="stroke:#181818;stroke-width:1.0;" width="10" x="858.5" y="194.8281"/><rect fill="#FFFFFF" height="87.3984" style="stroke:#181818;stroke-width:1.0;" width="10" x="951.5" y="267.8984"/><rect fill="#FFFFFF" height="29.1328" style="stroke:#181818;stroke-width:1.0;" width="10" x="1181.5" y="297.0313"/><rect fill="none" height="206.7344" style="stroke:#000000;stroke-width:1.5;" width="802.5" x="493.5" y="156.5625"/><line style="stroke:#181818;stroke-width:0.5;stroke-dasharray:5.0,5.0;" x1="33" x2="33" y1="81.2969" y2="409.4297"/><line style="stroke:#181818;stroke-width:0.5;stroke-dasharray:5.0,5.0;" x1="323" x2="323" y1="81.2969" y2="409.4297"/><line style="stroke:#181818;stroke-width:0.5;stroke-dasharray:5.0,5.0;" x1="553.5" x2="553.5" y1="81.2969" y2="409.4297"/><line style="stroke:#181818;stroke-width:0.5;stroke-dasharray:5.0,5.0;" x1="863.5" x2="863.5" y1="81.2969" y2="409.4297"/><line style="stroke:#181818;stroke-width:0.5;stroke-dasharray:5.0,5.0;" x1="956.5" x2="956.5" y1="81.2969" y2="409.4297"/><line style="stroke:#181818;stroke-width:0.5;stroke-dasharray:5.0,5.0;" x1="1186" x2="1186" y1="81.2969" y2="409.4297"/><text fill="#000000" font-family="sans-serif" font-size="14" lengthAdjust="spacing" textLength="51" x="5" y="77.9951">Usuario</text><ellipse cx="33.5" cy="13.5" fill="#E2E2F0" rx="8" ry="8" style="stroke:#181818;stroke-width:0.5;"/><path d="M33.5,21.5 L33.5,48.5 M20.5,29.5 L46.5,29.5 M33.5,48.5 L20.5,63.5 M33.5,48.5 L46.5,63.5 " fill="none" style="stroke:#181818;stroke-width:0.5;"/><text fill="#000000" font-family="sans-serif" font-size="14" lengthAdjust="spacing" textLength="51" x="5" y="421.4248">Usuario</text><ellipse cx="33.5" cy="433.2266" fill="#E2E2F0" rx="8" ry="8" style="stroke:#181818;stroke-width:0.5;"/><path d="M33.5,441.2266 L33.5,468.2266 M20.5,449.2266 L46.5,449.2266 M33.5,468.2266 L20.5,483.2266 M33.5,468.2266 L46.5,483.2266 " fill="none" style="stroke:#181818;stroke-width:0.5;"/><rect fill="#E2E2F0" height="30.2969" rx="2.5" ry="2.5" style="stroke:#181818;stroke-width:0.5;" width="137" x="255" y="50"/><text fill="#000000" font-family="sans-serif" font-size="14" lengthAdjust="spacing" textLength="123" x="262" y="69.9951">Frontend Vivinho</text><rect fill="#E2E2F0" height="30.2969" rx="2.5" ry="2.5" style="stroke:#181818;stroke-width:0.5;" width="137" x="255" y="408.4297"/><text fill="#000000" font-family="sans-serif" font-size="14" lengthAdjust="spacing" textLength="123" x="262" y="428.4248">Frontend Vivinho</text><rect fill="#E2E2F0" height="30.2969" rx="2.5" ry="2.5" style="stroke:#181818;stroke-width:0.5;" width="100" x="503.5" y="50"/><text fill="#000000" font-family="sans-serif" font-size="14" lengthAdjust="spacing" textLength="86" x="510.5" y="69.9951">Barramento</text><rect fill="#E2E2F0" height="30.2969" rx="2.5" ry="2.5" style="stroke:#181818;stroke-width:0.5;" width="100" x="503.5" y="408.4297"/><text fill="#000000" font-family="sans-serif" font-size="14" lengthAdjust="spacing" textLength="86" x="510.5" y="428.4248">Barramento</text><rect fill="#E2E2F0" height="30.2969" rx="2.5" ry="2.5" style="stroke:#181818;stroke-width:0.5;" width="58" x="834.5" y="50"/><text fill="#000000" font-family="sans-serif" font-size="14" lengthAdjust="spacing" textLength="44" x="841.5" y="69.9951">Cache</text><rect fill="#E2E2F0" height="30.2969" rx="2.5" ry="2.5" style="stroke:#181818;stroke-width:0.5;" width="58" x="834.5" y="408.4297"/><text fill="#000000" font-family="sans-serif" font-size="14" lengthAdjust="spacing" textLength="44" x="841.5" y="428.4248">Cache</text><rect fill="#E2E2F0" height="30.2969" rx="2.5" ry="2.5" style="stroke:#181818;stroke-width:0.5;" width="108" x="902.5" y="50"/><text fill="#000000" font-family="sans-serif" font-size="14" lengthAdjust="spacing" textLength="94" x="909.5" y="69.9951">Telefonia API</text><rect fill="#E2E2F0" height="30.2969" rx="2.5" ry="2.5" style="stroke:#181818;stroke-width:0.5;" width="108" x="902.5" y="408.4297"/><text fill="#000000" font-family="sans-serif" font-size="14" lengthAdjust="spacing" textLength="94" x="909.5" y="428.4248">Telefonia API</text><rect fill="#E2E2F0" height="30.2969" rx="2.5" ry="2.5" style="stroke:#181818;stroke-width:0.5;" width="199" x="1087" y="50"/><text fill="#000000" font-family="sans-serif" font-size="14" lengthAdjust="spacing" textLength="185" x="1094" y="69.9951">Banco de Dados Telefonia</text><rect fill="#E2E2F0" height="30.2969" rx="2.5" ry="2.5" style="stroke:#181818;stroke-width:0.5;" width="199" x="1087" y="408.4297"/><text fill="#000000" font-family="sans-serif" font-size="14" lengthAdjust="spacing" textLength="185" x="1094" y="428.4248">Banco de Dados Telefonia</text><rect fill="#FFFFFF" height="279" style="stroke:#181818;stroke-width:1.0;" width="10" x="318.5" y="112.4297"/><rect fill="#FFFFFF" height="249.8672" style="stroke:#181818;stroke-width:1.0;" width="10" x="548.5" y="141.5625"/><rect fill="#FFFFFF" height="29.1328" style="stroke:#181818;stroke-width:1.0;" width="10" x="858.5" y="194.8281"/><rect fill="#FFFFFF" height="87.3984" style="stroke:#181818;stroke-width:1.0;" width="10" x="951.5" y="267.8984"/><rect fill="#FFFFFF" height="29.1328" style="stroke:#181818;stroke-width:1.0;" width="10" x="1181.5" y="297.0313"/><polygon fill="#181818" points="306.5,108.4297,316.5,112.4297,306.5,116.4297,310.5,112.4297" style="stroke:#181818;stroke-width:1.0;"/><line style="stroke:#181818;stroke-width:1.0;" x1="33.5" x2="312.5" y1="112.4297" y2="112.4297"/><text fill="#000000" font-family="sans-serif" font-size="13" lengthAdjust="spacing" textLength="266" x="40.5" y="107.3638">Solicita ver todos os servi&#231;os de telefonia</text><polygon fill="#181818" points="536.5,137.5625,546.5,141.5625,536.5,145.5625,540.5,141.5625" style="stroke:#181818;stroke-width:1.0;"/><line style="stroke:#181818;stroke-width:1.0;" x1="328.5" x2="542.5" y1="141.5625" y2="141.5625"/><text fill="#000000" font-family="sans-serif" font-size="13" lengthAdjust="spacing" textLength="139" x="335.5" y="136.4966">GET /planos_telefonia</text><path d="M493.5,156.5625 L559.5,156.5625 L559.5,163.6953 L549.5,173.6953 L493.5,173.6953 L493.5,156.5625 " fill="#EEEEEE" style="stroke:#000000;stroke-width:1.5;"/><rect fill="none" height="206.7344" style="stroke:#000000;stroke-width:1.5;" width="802.5" x="493.5" y="156.5625"/><text fill="#000000" font-family="sans-serif" font-size="13" font-weight="bold" lengthAdjust="spacing" textLength="21" x="508.5" y="169.6294">alt</text><text fill="#000000" font-family="sans-serif" font-size="11" font-weight="bold" lengthAdjust="spacing" textLength="158" x="574.5" y="168.7729">[Informa&#231;&#245;es no cache]</text><polygon fill="#181818" points="846.5,190.8281,856.5,194.8281,846.5,198.8281,850.5,194.8281" style="stroke:#181818;stroke-width:1.0;"/><line style="stroke:#181818;stroke-width:1.0;" x1="558.5" x2="852.5" y1="194.8281" y2="194.8281"/><text fill="#000000" font-family="sans-serif" font-size="13" lengthAdjust="spacing" textLength="281" x="565.5" y="189.7622">get_item('planos_telefonia')['Item']['planos']</text><polygon fill="#181818" points="569.5,219.9609,559.5,223.9609,569.5,227.9609,565.5,223.9609" style="stroke:#181818;stroke-width:1.0;"/><line style="stroke:#181818;stroke-width:1.0;stroke-dasharray:2.0,2.0;" x1="563.5" x2="862.5" y1="223.9609" y2="223.9609"/><text fill="#000000" font-family="sans-serif" font-size="13" lengthAdjust="spacing" textLength="175" x="575.5" y="218.895">Retorna os dados do cache</text><line style="stroke:#000000;stroke-width:1.0;stroke-dasharray:2.0,2.0;" x1="493.5" x2="1296" y1="232.9609" y2="232.9609"/><text fill="#000000" font-family="sans-serif" font-size="11" font-weight="bold" lengthAdjust="spacing" textLength="230" x="498.5" y="243.1714">[Informa&#231;&#245;es n&#227;o est&#227;o no cache]</text><polygon fill="#181818" points="939.5,263.8984,949.5,267.8984,939.5,271.8984,943.5,267.8984" style="stroke:#181818;stroke-width:1.0;"/><line style="stroke:#181818;stroke-width:1.0;" x1="558.5" x2="945.5" y1="267.8984" y2="267.8984"/><text fill="#000000" font-family="sans-serif" font-size="13" lengthAdjust="spacing" textLength="68" x="565.5" y="262.8325">GET /plans</text><polygon fill="#181818" points="1169.5,293.0313,1179.5,297.0313,1169.5,301.0313,1173.5,297.0313" style="stroke:#181818;stroke-width:1.0;"/><line style="stroke:#181818;stroke-width:1.0;" x1="961.5" x2="1175.5" y1="297.0313" y2="297.0313"/><text fill="#000000" font-family="sans-serif" font-size="13" lengthAdjust="spacing" textLength="150" x="968.5" y="291.9653">SELECT * FROM planos;</text><polygon fill="#181818" points="972.5,322.1641,962.5,326.1641,972.5,330.1641,968.5,326.1641" style="stroke:#181818;stroke-width:1.0;"/><line style="stroke:#181818;stroke-width:1.0;stroke-dasharray:2.0,2.0;" x1="966.5" x2="1185.5" y1="326.1641" y2="326.1641"/><text fill="#000000" font-family="sans-serif" font-size="13" lengthAdjust="spacing" textLength="196" x="978.5" y="321.0981">Retorna os planos de telefonia</text><polygon fill="#181818" points="569.5,351.2969,559.5,355.2969,569.5,359.2969,565.5,355.2969" style="stroke:#181818;stroke-width:1.0;"/><line style="stroke:#181818;stroke-width:1.0;stroke-dasharray:2.0,2.0;" x1="563.5" x2="955.5" y1="355.2969" y2="355.2969"/><text fill="#000000" font-family="sans-serif" font-size="13" lengthAdjust="spacing" textLength="196" x="575.5" y="350.231">Retorna os planos de telefonia</text><polygon fill="#181818" points="334.5,387.4297,324.5,391.4297,334.5,395.4297,330.5,391.4297" style="stroke:#181818;stroke-width:1.0;"/><line style="stroke:#181818;stroke-width:1.0;stroke-dasharray:2.0,2.0;" x1="328.5" x2="552.5" y1="391.4297" y2="391.4297"/><text fill="#000000" font-family="sans-serif" font-size="13" lengthAdjust="spacing" textLength="196" x="340.5" y="386.3638">Retorna os planos de telefonia</text><!--SRC=[bPBFIWCn4CRl-nH3Bwj2yLv1w5yfA4gjNegKONTg0zjaISPz8Gzz0fzWNynikcsJj0M5XIIJBx-P-NOmOwMXysQ-K0lL0JJGxfCIDOjCb2WPEXEj99FCuLrKGgvtodsmZOKl1gWrRaZoJdiyXh8XPcjo2hSBB-TKq4f9WT1_cJhH8T8lHPnFPWfoWX7coXE6pqQ396aRXEvzt44FNbLXYOnGaGPM3Sb-XdGbwgtTMJxlMGbcB2faEZ4YYG9DggC1FNWOp-6sB50gipo3yxp2Wc4gLqfliDxMFsH0AiYSK-3fcWJElnvy4Yy5q-OgZHEarujqQc_IZqLxbtvOoY7jiCMw5RfHpJEoaoAniIDt3kV7Gd8wWIHK68fBhxyLaE5ckTY6_uSzfunVQJ0541m3n6XW_-ZuSJoSmmrCPizFiElxxYpCpWRu9sT1M8vdmeuK3aJWn0Mkg_6ojt_7DhtR4OiCF3VK_y5xinV48-Wl]--></g></svg>