<?xml version="1.0" encoding="us-ascii" standalone="no"?><svg xmlns="http://www.w3.org/2000/svg" xmlns:xlink="http://www.w3.org/1999/xlink" contentStyleType="text/css" height="386px" preserveAspectRatio="none" style="width:1577px;height:386px;background:#FFFFFF;" version="1.1" viewBox="0 0 1577 386" width="1577px" zoomAndPan="magnify"><defs/><g><rect fill="#FFFFFF" height="174.7969" style="stroke:#181818;stroke-width:1.0;" width="10" x="347.5" y="112.4297"/><rect fill="#FFFFFF" height="145.6641" style="stroke:#181818;stroke-width:1.0;" width="10" x="616.5" y="141.5625"/><rect fill="#FFFFFF" height="87.3984" style="stroke:#181818;stroke-width:1.0;" width="10" x="885.5" y="170.6953"/><rect fill="#FFFFFF" height="29.1328" style="stroke:#181818;stroke-width:1.0;" width="10" x="1444.5" y="199.8281"/><line style="stroke:#181818;stroke-width:0.5;stroke-dasharray:5.0,5.0;" x1="33" x2="33" y1="81.2969" y2="305.2266"/><line style="stroke:#181818;stroke-width:0.5;stroke-dasharray:5.0,5.0;" x1="352" x2="352" y1="81.2969" y2="305.2266"/><line style="stroke:#181818;stroke-width:0.5;stroke-dasharray:5.0,5.0;" x1="621.5" x2="621.5" y1="81.2969" y2="305.2266"/><line style="stroke:#181818;stroke-width:0.5;stroke-dasharray:5.0,5.0;" x1="890" x2="890" y1="81.2969" y2="305.2266"/><line style="stroke:#181818;stroke-width:0.5;stroke-dasharray:5.0,5.0;" x1="1449.5" x2="1449.5" y1="81.2969" y2="305.2266"/><text fill="#000000" font-family="sans-serif" font-size="14" lengthAdjust="spacing" textLength="51" x="5" y="77.9951">Usuario</text><ellipse cx="33.5" cy="13.5" fill="#E2E2F0" rx="8" ry="8" style="stroke:#181818;stroke-width:0.5;"/><path d="M33.5,21.5 L33.5,48.5 M20.5,29.5 L46.5,29.5 M33.5,48.5 L20.5,63.5 M33.5,48.5 L46.5,63.5 " fill="none" style="stroke:#181818;stroke-width:0.5;"/><text fill="#000000" font-family="sans-serif" font-size="14" lengthAdjust="spacing" textLength="51" x="5" y="317.2217">Usuario</text><ellipse cx="33.5" cy="329.0234" fill="#E2E2F0" rx="8" ry="8" style="stroke:#181818;stroke-width:0.5;"/><path d="M33.5,337.0234 L33.5,364.0234 M20.5,345.0234 L46.5,345.0234 M33.5,364.0234 L20.5,379.0234 M33.5,364.0234 L46.5,379.0234 " fill="none" style="stroke:#181818;stroke-width:0.5;"/><rect fill="#E2E2F0" height="30.2969" rx="2.5" ry="2.5" style="stroke:#181818;stroke-width:0.5;" width="137" x="284" y="50"/><text fill="#000000" font-family="sans-serif" font-size="14" lengthAdjust="spacing" textLength="123" x="291" y="69.9951">Frontend Vivinho</text><rect fill="#E2E2F0" height="30.2969" rx="2.5" ry="2.5" style="stroke:#181818;stroke-width:0.5;" width="137" x="284" y="304.2266"/><text fill="#000000" font-family="sans-serif" font-size="14" lengthAdjust="spacing" textLength="123" x="291" y="324.2217">Frontend Vivinho</text><rect fill="#E2E2F0" height="30.2969" rx="2.5" ry="2.5" style="stroke:#181818;stroke-width:0.5;" width="100" x="571.5" y="50"/><text fill="#000000" font-family="sans-serif" font-size="14" lengthAdjust="spacing" textLength="86" x="578.5" y="69.9951">Barramento</text><rect fill="#E2E2F0" height="30.2969" rx="2.5" ry="2.5" style="stroke:#181818;stroke-width:0.5;" width="100" x="571.5" y="304.2266"/><text fill="#000000" font-family="sans-serif" font-size="14" lengthAdjust="spacing" textLength="86" x="578.5" y="324.2217">Barramento</text><rect fill="#E2E2F0" height="30.2969" rx="2.5" ry="2.5" style="stroke:#181818;stroke-width:0.5;" width="153" x="814" y="50"/><text fill="#000000" font-family="sans-serif" font-size="14" lengthAdjust="spacing" textLength="139" x="821" y="69.9951">Outros Servi&#231;os API</text><rect fill="#E2E2F0" height="30.2969" rx="2.5" ry="2.5" style="stroke:#181818;stroke-width:0.5;" width="153" x="814" y="304.2266"/><text fill="#000000" font-family="sans-serif" font-size="14" lengthAdjust="spacing" textLength="139" x="821" y="324.2217">Outros Servi&#231;os API</text><rect fill="#E2E2F0" height="30.2969" rx="2.5" ry="2.5" style="stroke:#181818;stroke-width:0.5;" width="244" x="1327.5" y="50"/><text fill="#000000" font-family="sans-serif" font-size="14" lengthAdjust="spacing" textLength="230" x="1334.5" y="69.9951">Banco de Dados Outros Servi&#231;os</text><rect fill="#E2E2F0" height="30.2969" rx="2.5" ry="2.5" style="stroke:#181818;stroke-width:0.5;" width="244" x="1327.5" y="304.2266"/><text fill="#000000" font-family="sans-serif" font-size="14" lengthAdjust="spacing" textLength="230" x="1334.5" y="324.2217">Banco de Dados Outros Servi&#231;os</text><rect fill="#FFFFFF" height="174.7969" style="stroke:#181818;stroke-width:1.0;" width="10" x="347.5" y="112.4297"/><rect fill="#FFFFFF" height="145.6641" style="stroke:#181818;stroke-width:1.0;" width="10" x="616.5" y="141.5625"/><rect fill="#FFFFFF" height="87.3984" style="stroke:#181818;stroke-width:1.0;" width="10" x="885.5" y="170.6953"/><rect fill="#FFFFFF" height="29.1328" style="stroke:#181818;stroke-width:1.0;" width="10" x="1444.5" y="199.8281"/><polygon fill="#181818" points="335.5,108.4297,345.5,112.4297,335.5,116.4297,339.5,112.4297" style="stroke:#181818;stroke-width:1.0;"/><line style="stroke:#181818;stroke-width:1.0;" x1="33.5" x2="341.5" y1="112.4297" y2="112.4297"/><text fill="#000000" font-family="sans-serif" font-size="13" lengthAdjust="spacing" textLength="295" x="40.5" y="107.3638">Solicita contratar um plano de TV e Streaming</text><polygon fill="#181818" points="604.5,137.5625,614.5,141.5625,604.5,145.5625,608.5,141.5625" style="stroke:#181818;stroke-width:1.0;"/><line style="stroke:#181818;stroke-width:1.0;" x1="357.5" x2="610.5" y1="141.5625" y2="141.5625"/><text fill="#000000" font-family="sans-serif" font-size="13" lengthAdjust="spacing" textLength="227" x="364.5" y="136.4966">POST /servicos_contratados_outros</text><polygon fill="#181818" points="873.5,166.6953,883.5,170.6953,873.5,174.6953,877.5,170.6953" style="stroke:#181818;stroke-width:1.0;"/><line style="stroke:#181818;stroke-width:1.0;" x1="626.5" x2="879.5" y1="170.6953" y2="170.6953"/><text fill="#000000" font-family="sans-serif" font-size="13" lengthAdjust="spacing" textLength="95" x="633.5" y="165.6294">POST /services</text><polygon fill="#181818" points="1432.5,195.8281,1442.5,199.8281,1432.5,203.8281,1436.5,199.8281" style="stroke:#181818;stroke-width:1.0;"/><line style="stroke:#181818;stroke-width:1.0;" x1="895.5" x2="1438.5" y1="199.8281" y2="199.8281"/><text fill="#000000" font-family="sans-serif" font-size="13" lengthAdjust="spacing" textLength="530" x="902.5" y="194.7622">INSERT INTO servicos_contratados VALUES (cliente_id, plano_id, data_contratacao)</text><polygon fill="#181818" points="906.5,224.9609,896.5,228.9609,906.5,232.9609,902.5,228.9609" style="stroke:#181818;stroke-width:1.0;"/><line style="stroke:#181818;stroke-width:1.0;stroke-dasharray:2.0,2.0;" x1="900.5" x2="1448.5" y1="228.9609" y2="228.9609"/><text fill="#000000" font-family="sans-serif" font-size="13" lengthAdjust="spacing" textLength="235" x="912.5" y="223.895">Retorna que o servico foi contratado</text><polygon fill="#181818" points="637.5,254.0938,627.5,258.0938,637.5,262.0938,633.5,258.0938" style="stroke:#181818;stroke-width:1.0;"/><line style="stroke:#181818;stroke-width:1.0;stroke-dasharray:2.0,2.0;" x1="631.5" x2="889.5" y1="258.0938" y2="258.0938"/><text fill="#000000" font-family="sans-serif" font-size="13" lengthAdjust="spacing" textLength="235" x="643.5" y="253.0278">Retorna que o servico foi contratado</text><polygon fill="#181818" points="363.5,283.2266,353.5,287.2266,363.5,291.2266,359.5,287.2266" style="stroke:#181818;stroke-width:1.0;"/><line style="stroke:#181818;stroke-width:1.0;stroke-dasharray:2.0,2.0;" x1="357.5" x2="620.5" y1="287.2266" y2="287.2266"/><text fill="#000000" font-family="sans-serif" font-size="13" lengthAdjust="spacing" textLength="235" x="369.5" y="282.1606">Retorna que o servico foi contratado</text><!--SRC=[fL91QiCm4Bpx5KDEBJJqdaCX8Ia4IXqYnrUpI6ehS2HNblsbFgGVgoBRjMExqDAJrwFHpEokY3jZiJYL5Lbb5g0IRHqLP9tYgY3ji7YqHZkf1L9LA_tMC3kmnQvlRCXQEalj6cx_UqsBAsTD2IPjhJu_VBK-xCE5vY3Wt9JhGetbDJSG4biIfcFtCZCIsqqKjRrX-J0Elm8pkLTt1EuFB3cogCueSjB19qaXmPoLT5RwDIBkL4rEJeOGZO2BLz_y2eUO9RWlsr1PP-QRo4p8sqiFPjQN5xt9RAvbvK1ZEiO9CbNSRbROFxFTCV6V9CPSMgJhfzEEuORdokUIcH9tpRH29Jphcyx9tFuKoQzb360vt-DH-iUg2U-LXEb2uSKezBaY8Nzh55eVRUT_5fVn3ZSrzyp-wZ1u10Dq9Fi5]--></g></svg>